<svg width="169" height="106" viewBox="0 0 169 106" fill="none" xmlns="http://www.w3.org/2000/svg">
<path d="M162.563 77.7892L153.851 75.2973C153.475 75.1898 153.212 74.8412 153.212 74.4495V71.5385C153.921 71.0469 154.597 70.4967 155.229 69.8826C158.292 66.907 159.979 62.9159 159.979 58.644V54.627L160.821 52.9407C161.745 51.0894 162.234 49.0169 162.234 46.9474V36.065C162.234 34.8987 161.29 33.9533 160.125 33.9533H139.826C132.445 33.9533 126.44 39.9652 126.44 47.3545V47.4804C126.44 49.2013 126.846 50.9247 127.615 52.4637L128.695 54.6267V58.0758C128.695 63.5421 131.386 68.4466 135.461 71.398L135.462 74.449C135.462 74.9195 135.462 75.1143 133.72 75.6127L129.469 76.8285L117.173 72.3522C117.217 71.7713 117.021 71.1806 116.598 70.7355L112.668 66.6027V59.665C113.084 59.3223 113.493 58.9704 113.89 58.5981C118.847 53.9467 121.69 47.3796 121.69 40.5807V35.0401C123.187 31.7793 123.945 28.3288 123.945 24.7752V2.19668C123.945 1.03045 123.001 0.0849609 121.836 0.0849609H90.2604C79.1482 0.0849609 70.108 9.1355 70.108 20.2598V24.7757C70.108 28.3293 70.8665 31.7799 72.3633 35.0407V39.8078C72.3633 47.7017 75.8694 54.8134 81.385 59.502V66.603L77.4557 70.7357C77.0324 71.1809 76.8366 71.7716 76.8808 72.3525L63.9025 77.0768C62.962 77.4192 62.0882 77.8829 61.2948 78.4446L59.2568 77.4245C65.3234 74.7809 67.2452 71.0629 67.3374 70.8782C67.6344 70.2838 67.6344 69.5839 67.3374 68.9895C65.8167 65.9447 65.6325 60.3638 65.4845 55.8797C65.4353 54.3868 65.3886 52.9765 65.2995 51.7207C64.5803 41.5918 56.8887 33.9533 47.4077 33.9533C37.9268 33.9533 30.2349 41.5915 29.516 51.7207C29.4269 52.9767 29.3802 54.3871 29.331 55.8802C29.183 60.3641 28.9985 65.9444 27.4781 68.9892C27.1811 69.5836 27.1811 70.2835 27.4781 70.8779C27.5703 71.0626 29.4882 74.7731 35.5668 77.4197L29.9061 80.2531C26.8799 81.769 25 84.8141 25 88.201V103.802C25 104.968 25.9444 105.914 27.1094 105.914C28.2743 105.914 29.2188 104.968 29.2188 103.802V88.201C29.2188 86.4238 30.2051 84.826 31.7928 84.0311L38.8417 80.5028L41.2937 82.8356C43.0082 84.4667 45.2075 85.2818 47.4077 85.2818C49.6074 85.2818 51.8079 84.4661 53.5218 82.8356L55.9735 80.5031L58.2719 81.6536C57.1896 83.3872 56.5754 85.4201 56.5754 87.5495V103.803C56.5754 104.969 57.5198 105.914 58.6847 105.914C59.8497 105.914 60.7941 104.969 60.7941 103.803V87.5495C60.7941 84.6506 62.6225 82.0371 65.3442 81.0463L79.0276 76.0651L84.7237 84.6193C85.4519 85.7129 86.6188 86.4143 87.9252 86.5438C88.0709 86.5581 88.2157 86.5652 88.3603 86.5652C89.5128 86.5652 90.6168 86.111 91.4419 85.2852L94.9171 81.8062V103.803C94.9171 104.969 95.8615 105.915 97.0264 105.915C98.1914 105.915 99.1358 104.969 99.1358 103.803V81.8062L102.611 85.2852C103.436 86.1113 104.54 86.5655 105.693 86.5655C105.837 86.5655 105.982 86.5584 106.127 86.5441C107.434 86.4145 108.601 85.7132 109.329 84.6196L115.026 76.0657L128.709 81.0468C131.43 82.0377 133.259 84.6511 133.259 87.5501V103.803C133.259 104.97 134.203 105.915 135.368 105.915C136.533 105.915 137.478 104.97 137.478 103.803V87.5501C137.478 84.614 136.312 81.8603 134.358 79.8237L134.879 79.6748C135.404 79.5244 136.122 79.3186 136.842 78.9652L142.227 84.3569V103.803C142.227 104.97 143.172 105.915 144.337 105.915C145.502 105.915 146.446 104.97 146.446 103.803V84.3569L151.794 79.0027C152.079 79.1474 152.377 79.2696 152.692 79.3594L161.404 81.8512C163.392 82.42 164.781 84.2634 164.781 86.334V103.803C164.781 104.97 165.726 105.915 166.891 105.915C168.056 105.915 169 104.97 169 103.803V86.334C169 82.3871 166.353 78.8735 162.563 77.7892ZM38.5323 74.0593C34.5867 72.638 32.6075 70.7431 31.7627 69.7083C32.3387 68.2008 32.7122 66.4743 32.965 64.6517C34.1283 67.444 36.0765 69.8277 38.5323 71.5283V74.0593ZM50.6163 79.7745C48.8171 81.4858 45.9987 81.4855 44.2001 79.7742L42.2384 77.908C42.5694 77.2871 42.7514 76.5832 42.7514 75.8458V73.595C44.2229 74.0554 45.7872 74.3037 47.4083 74.3037C49.0275 74.3037 50.5909 74.0542 52.065 73.5964L52.0647 75.8455C52.0647 76.5832 52.2464 77.2874 52.5777 77.9085L50.6163 79.7745ZM47.4089 70.0803C41.11 70.0803 35.9859 64.9502 35.9859 58.6446C35.9859 57.4784 35.0415 56.5329 33.8765 56.5329C33.7584 56.5329 33.6431 56.545 33.5303 56.5639C33.5365 56.3822 33.5424 56.2004 33.5486 56.0204C33.5956 54.5684 33.6408 53.1969 33.7244 52.0206C33.9938 48.2262 35.5083 44.7298 37.989 42.1749C40.4918 39.5969 43.837 38.1773 47.4083 38.1773C50.9796 38.1773 54.3245 39.5969 56.8277 42.1749C59.3083 44.7298 60.8228 48.2262 61.0923 52.0206C61.1755 53.1966 61.2211 54.5679 61.2689 56.0196C61.2731 56.1443 61.2773 56.2707 61.2815 56.3963C58.9865 52.8565 55.4422 50.2478 50.8626 48.7747C46.6318 47.4139 42.993 47.4981 42.8394 47.5021C42.287 47.5175 41.7628 47.749 41.3794 48.1471L37.5736 52.0986C36.765 52.9382 36.7892 54.275 37.6278 55.0845C38.4665 55.894 39.8019 55.8695 40.6105 55.0302L43.7774 51.7424C46.5047 51.8758 55.2788 52.8973 58.6912 60.4198C57.8326 65.9632 53.0732 70.0803 47.4089 70.0803ZM56.2832 74.0663L56.2834 71.5478C58.7373 69.8564 60.6884 67.4772 61.8525 64.6638C62.1053 66.4822 62.4785 68.2048 63.0534 69.7089C62.2133 70.7338 60.2249 72.6456 56.2832 74.0663ZM76.5821 39.8075V34.5682C76.5821 34.2503 76.5104 33.9364 76.3723 33.65C75.015 30.8361 74.3268 27.8504 74.3268 24.7757V20.26C74.3268 11.4643 81.4747 4.30868 90.2604 4.30868H119.727V24.776C119.727 27.8507 119.038 30.8364 117.681 33.6503C117.543 33.9366 117.471 34.2506 117.471 34.5685V40.5812C117.471 46.3001 115.175 51.6044 111.005 55.5173C110.485 56.0055 109.944 56.4633 109.386 56.8899C109.373 56.8983 109.361 56.9076 109.349 56.9164C105.443 59.8854 100.659 61.3285 95.6618 61.0044C84.9628 60.3109 76.5821 51.0002 76.5821 39.8075ZM88.459 82.2984C88.4444 82.313 88.4103 82.3476 88.3414 82.3403C88.2728 82.3336 88.2458 82.2933 88.2343 82.2759L81.6741 72.4245L83.7852 70.2039L93.7372 77.014L88.459 82.2984ZM97.0267 74.1491L85.6037 66.3324V62.3905C88.5594 63.9901 91.8689 64.9904 95.3887 65.2185C95.9447 65.2546 96.4974 65.2723 97.0484 65.2723C101.082 65.2723 104.964 64.3071 108.45 62.475V66.3324L97.0267 74.1491ZM105.819 82.2764C105.808 82.2939 105.781 82.3341 105.712 82.3409C105.643 82.3496 105.609 82.3133 105.594 82.2989L100.316 77.0149L110.268 70.2044L112.38 72.4251L105.819 82.2764ZM144.337 80.4947L139.55 75.7028C139.633 75.323 139.681 74.9071 139.68 74.4484L139.68 73.5573C141.008 73.9937 142.408 74.2527 143.857 74.2961C144.02 74.3012 144.181 74.3034 144.343 74.3034C145.944 74.3034 147.506 74.0613 148.994 73.5992V74.4495C148.994 74.8708 149.046 75.2835 149.146 75.6803L144.337 80.4947ZM152.291 66.8519C150.056 69.0238 147.102 70.1709 143.984 70.0746C137.88 69.8913 132.914 64.5087 132.914 58.0764V54.1286C132.914 53.8006 132.837 53.4774 132.691 53.1843L131.388 50.5753C130.911 49.6194 130.658 48.5495 130.658 47.4806V47.3548C130.658 42.294 134.771 38.177 139.826 38.177H158.015V46.9476C158.015 48.365 157.681 49.7844 157.047 51.0523L155.983 53.1843C155.836 53.4776 155.76 53.8006 155.76 54.1286V58.6443C155.76 61.764 154.528 64.6788 152.291 66.8519Z" fill="#F8F8F8"/>
<path d="M64.9602 40.693L60.8463 39.5176C60.6688 39.4668 60.5447 39.3024 60.5447 39.1177V37.7445C60.8794 37.5126 61.1987 37.2531 61.4971 36.9635C62.9434 35.5599 63.7399 33.6773 63.7399 31.6622V29.7674L64.1377 28.972C64.5742 28.0988 64.8049 27.1211 64.8049 26.145V21.0117C64.8049 20.4616 64.3589 20.0157 63.8088 20.0157H54.2234C50.7378 20.0157 47.902 22.8515 47.902 26.337V26.3964C47.902 27.2081 48.0939 28.0211 48.4569 28.747L48.967 29.7673V31.3942C48.967 33.9727 50.2377 36.2861 52.1622 37.6783L52.1625 39.1174C52.1625 39.3393 52.1625 39.4312 51.34 39.6663L49.3327 40.2398L43.526 38.1284C43.5468 37.8544 43.4544 37.5757 43.2545 37.3657L41.399 35.4163V32.1438C41.5951 31.9822 41.7885 31.8162 41.9759 31.6406C44.3167 29.4465 45.6592 26.3488 45.6592 23.1418V20.5283C46.366 18.9902 46.7242 17.3626 46.7242 15.6864V5.03613C46.7242 4.48602 46.2783 4.04004 45.7281 4.04004H30.8174C25.57 4.04004 21.301 8.30916 21.301 13.5565V15.6866C21.301 17.3629 21.6592 18.9905 22.366 20.5286V22.7772C22.366 26.5008 24.0217 29.8553 26.6262 32.0669V35.4165L24.7707 37.3659C24.5708 37.5759 24.4784 37.8545 24.4993 38.1285L18.3706 40.3569C17.9265 40.5184 17.5139 40.7372 17.1392 41.0021L16.1768 40.521C19.0416 39.274 19.9491 37.5202 19.9927 37.4331C20.1329 37.1527 20.1329 36.8225 19.9927 36.5422C19.2745 35.1059 19.1876 32.4735 19.1177 30.3583C19.0945 29.6541 19.0724 28.9889 19.0303 28.3965C18.6907 23.6187 15.0585 20.0157 10.5814 20.0157C6.10433 20.0157 2.47204 23.6186 2.13257 28.3965C2.09047 28.989 2.06842 29.6543 2.04518 30.3586C1.97532 32.4736 1.8882 35.1058 1.17021 36.542C1.02996 36.8224 1.02996 37.1526 1.17021 37.4329C1.21377 37.5201 2.11942 39.2703 4.9899 40.5187L2.31678 41.8552C0.887719 42.5703 0 44.0066 0 45.6042V52.9632C0 53.5134 0.445984 53.9593 0.996094 53.9593C1.5462 53.9593 1.99219 53.5134 1.99219 52.9632V45.6042C1.99219 44.7659 2.45796 44.0122 3.20769 43.6373L6.53637 41.973L7.69423 43.0734C8.50385 43.8427 9.54245 44.2272 10.5814 44.2272C11.6202 44.2272 12.6593 43.8425 13.4686 43.0734L14.6264 41.9731L15.7117 42.5158C15.2007 43.3335 14.9106 44.2924 14.9106 45.2969V52.9635C14.9106 53.5136 15.3566 53.9596 15.9067 53.9596C16.4568 53.9596 16.9028 53.5136 16.9028 52.9635V45.2969C16.9028 43.9295 17.7662 42.6967 19.0514 42.2293L25.513 39.8798L28.2029 43.9147C28.5467 44.4306 29.0978 44.7614 29.7147 44.8225C29.7835 44.8293 29.8519 44.8326 29.9201 44.8326C30.4644 44.8326 30.9857 44.6184 31.3754 44.2288L33.0164 42.5878V52.9636C33.0164 53.5138 33.4624 53.9597 34.0125 53.9597C34.5626 53.9597 35.0086 53.5138 35.0086 52.9636V42.5878L36.6496 44.2288C37.0392 44.6185 37.5604 44.8327 38.1048 44.8327C38.173 44.8327 38.2415 44.8294 38.3102 44.8226C38.9272 44.7615 39.4783 44.4307 39.8221 43.9149L42.5121 39.88L48.9735 42.2296C50.2586 42.697 51.1222 43.9297 51.1222 45.2972V52.9638C51.1222 53.5139 51.5682 53.9599 52.1183 53.9599C52.6684 53.9599 53.1144 53.5139 53.1144 52.9638V45.2972C53.1144 43.9122 52.5641 42.6133 51.6411 41.6527L51.8872 41.5824C52.1354 41.5115 52.4741 41.4144 52.8141 41.2477L55.3573 43.7909V52.9638C55.3573 53.5139 55.8033 53.9599 56.3534 53.9599C56.9035 53.9599 57.3495 53.5139 57.3495 52.9638V43.7909L59.8751 41.2654C60.0093 41.3337 60.1504 41.3913 60.2989 41.4337L64.4129 42.609C65.3519 42.8773 66.0078 43.7469 66.0078 44.7236V52.9638C66.0078 53.5139 66.4538 53.9599 67.0039 53.9599C67.554 53.9599 68 53.5139 68 52.9638V44.7236C68 42.8618 66.75 41.2044 64.9602 40.693ZM6.39027 38.9336C4.52705 38.2632 3.59245 37.3693 3.19348 36.8812C3.46548 36.1702 3.64185 35.3558 3.76125 34.4961C4.31056 35.8132 5.23056 36.9376 6.39027 37.7397V38.9336ZM12.0966 41.6294C11.247 42.4367 9.91605 42.4365 9.06671 41.6293L8.14034 40.749C8.29666 40.4562 8.38259 40.1241 8.38259 39.7763V38.7146C9.07747 38.9317 9.81617 39.0489 10.5817 39.0489C11.3463 39.0489 12.0846 38.9312 12.7807 38.7153L12.7805 39.7762C12.7805 40.1241 12.8663 40.4563 13.0228 40.7493L12.0966 41.6294ZM10.582 37.0567C7.6075 37.0567 5.18779 34.6368 5.18779 31.6625C5.18779 31.1124 4.7418 30.6664 4.1917 30.6664C4.13591 30.6664 4.08146 30.6721 4.0282 30.681C4.03113 30.5954 4.03391 30.5096 4.03684 30.4247C4.05902 29.7398 4.0804 29.0929 4.11984 28.538C4.24708 26.7482 4.96227 25.0989 6.13368 23.8938C7.31558 22.6777 8.89525 22.0081 10.5817 22.0081C12.2682 22.0081 13.8477 22.6777 15.0297 23.8938C16.2011 25.0989 16.9163 26.7482 17.0436 28.538C17.0829 29.0927 17.1044 29.7395 17.127 30.4243C17.129 30.4831 17.131 30.5428 17.1329 30.602C16.0492 28.9323 14.3755 27.7018 12.2129 27.0069C10.215 26.365 8.49668 26.4047 8.42416 26.4066C8.16332 26.4139 7.91576 26.5231 7.73473 26.7109L5.93752 28.5748C5.55568 28.9708 5.5671 29.6014 5.96315 29.9832C6.3592 30.3651 6.98979 30.3535 7.37163 29.9576L8.86709 28.4067C10.155 28.4697 14.2983 28.9515 15.9097 32.4999C15.5043 35.1147 13.2568 37.0567 10.582 37.0567ZM14.7726 38.9369L14.7727 37.7489C15.9315 36.9511 16.8528 35.8288 17.4026 34.5018C17.522 35.3595 17.6982 36.172 17.9697 36.8815C17.573 37.3649 16.634 38.2667 14.7726 38.9369ZM24.3582 22.7771V20.3057C24.3582 20.1558 24.3243 20.0077 24.2591 19.8726C23.6182 18.5453 23.2932 17.1369 23.2932 15.6866V13.5566C23.2932 9.40766 26.6686 6.03236 30.8174 6.03236H44.732V15.6868C44.732 17.1371 44.4071 18.5454 43.7661 19.8727C43.7009 20.0078 43.667 20.1559 43.667 20.3058V23.1421C43.667 25.8396 42.5826 28.3417 40.6135 30.1874C40.3677 30.4177 40.1126 30.6336 39.8488 30.8348C39.843 30.8388 39.8374 30.8432 39.8317 30.8473C37.987 32.2478 35.7276 32.9285 33.3681 32.7756C28.3158 32.4485 24.3582 28.0567 24.3582 22.7771ZM29.9668 42.82C29.9598 42.8269 29.9438 42.8432 29.9112 42.8397C29.8788 42.8366 29.8661 42.8176 29.8606 42.8093L26.7628 38.1625L27.7597 37.115L32.4592 40.3273L29.9668 42.82ZM34.0126 38.976L28.6184 35.2888V33.4295C30.0142 34.184 31.577 34.6558 33.2391 34.7634C33.5017 34.7804 33.7627 34.7888 34.0228 34.7888C35.9275 34.7888 37.7606 34.3335 39.4068 33.4693V35.2888L34.0126 38.976ZM38.1646 42.8096C38.1592 42.8178 38.1464 42.8368 38.114 42.84C38.0815 42.8441 38.0655 42.827 38.0585 42.8202L35.566 40.3277L40.2656 37.1153L41.2626 38.1628L38.1646 42.8096ZM56.3534 41.9692L54.0929 39.7088C54.1324 39.5297 54.1547 39.3335 54.1546 39.1171L54.1544 38.6968C54.7817 38.9026 55.4428 39.0248 56.127 39.0453C56.2037 39.0477 56.2798 39.0487 56.3563 39.0487C57.1123 39.0487 57.8502 38.9345 58.5525 38.7166V39.1177C58.5525 39.3164 58.5775 39.5111 58.6245 39.6982L56.3534 41.9692ZM60.1097 35.5339C59.054 36.5584 57.6594 37.0995 56.1869 37.054C53.3043 36.9676 50.9592 34.4286 50.9592 31.3945V29.5323C50.9592 29.3776 50.9232 29.2251 50.854 29.0869L50.2387 27.8562C50.0133 27.4053 49.8942 26.9007 49.8942 26.3965V26.3371C49.8942 23.95 51.8363 22.008 54.2234 22.008H62.8127V26.1451C62.8127 26.8137 62.6547 27.4832 62.3557 28.0812L61.8529 29.0869C61.7837 29.2253 61.7477 29.3776 61.7477 29.5323V31.6624C61.7477 33.1339 61.166 34.5088 60.1097 35.5339Z" fill="#BEAD8E"/>
</svg>
