<svg width="22" height="22" viewBox="0 0 22 22" fill="none" xmlns="http://www.w3.org/2000/svg">
<path d="M21.2825 20.2175L16.4075 15.3425H16.355C17.8576 13.5708 18.617 11.2867 18.4742 8.96803C18.3314 6.64934 17.2976 4.47567 15.589 2.90171C13.8804 1.32775 11.6293 0.475438 9.30673 0.523057C6.98414 0.570676 4.76992 1.51454 3.12725 3.15721C1.48459 4.79987 0.540723 7.01409 0.493104 9.33668C0.445485 11.6593 1.2978 13.9103 2.87176 15.6189C4.44571 17.3276 6.61938 18.3614 8.93807 18.5042C11.2568 18.6469 13.5408 17.8876 15.3125 16.385C15.3125 16.385 15.3125 16.4225 15.3125 16.4375L20.1875 21.3125C20.2573 21.3828 20.3402 21.4386 20.4316 21.4767C20.523 21.5147 20.621 21.5343 20.72 21.5343C20.819 21.5343 20.9171 21.5147 21.0085 21.4767C21.0999 21.4386 21.1828 21.3828 21.2525 21.3125C21.3294 21.2444 21.3915 21.1613 21.435 21.0682C21.4784 20.9752 21.5023 20.8742 21.5051 20.7715C21.5079 20.6688 21.4896 20.5667 21.4513 20.4714C21.413 20.3761 21.3556 20.2897 21.2825 20.2175ZM9.50004 17C8.01668 17 6.56663 16.5601 5.33326 15.736C4.0999 14.9119 3.1386 13.7406 2.57094 12.3701C2.00329 10.9997 1.85476 9.49167 2.14415 8.03682C2.43354 6.58196 3.14785 5.24559 4.19674 4.19669C5.24563 3.1478 6.58201 2.43349 8.03686 2.1441C9.49172 1.85472 10.9997 2.00324 12.3702 2.5709C13.7406 3.13856 14.912 4.09985 15.7361 5.33322C16.5602 6.56659 17 8.01663 17 9.49999C17 10.4849 16.806 11.4602 16.4291 12.3701C16.0522 13.2801 15.4998 14.1069 14.8033 14.8033C14.1069 15.4997 13.2801 16.0522 12.3702 16.4291C11.4602 16.806 10.485 17 9.50004 17Z" fill="#111111"/>
</svg>
